<svg width="155" height="48" viewBox="0 0 155 48" fill="none" xmlns="http://www.w3.org/2000/svg">
<g clip-path="url(#clip0_98_179)">
<path d="M14.1433 47.0483C6.3319 47.0483 -6.10352e-05 40.857 -6.10352e-05 33.2193V14.7806C-6.10352e-05 7.1429 6.3319 0.95166 14.1433 0.95166H33.001C40.8124 0.95166 47.1443 7.1429 47.1443 14.7806V33.2193C47.1443 40.857 40.8124 47.0483 33.001 47.0483H14.1433Z" fill="#FF585F"/>
<g clip-path="url(#clip1_98_179)">
<g clip-path="url(#clip2_98_179)">
<path d="M37.0499 37.5032H10.0944C9.91788 37.5032 9.74859 37.4346 9.62377 37.3126C9.49896 37.1906 9.42883 37.025 9.42883 36.8524V28.7177C9.42891 28.5501 9.49506 28.3889 9.61353 28.2677L16.9348 20.7838C17.0275 20.6891 17.1473 20.624 17.2785 20.597L23.4361 19.3293L29.9633 13.9051C30.004 13.8711 30.0487 13.8421 30.0964 13.8185L36.7521 10.5646C36.8536 10.515 36.9663 10.4915 37.0797 10.4965C37.1931 10.5015 37.3033 10.5347 37.3998 10.593C37.4963 10.6514 37.576 10.7328 37.6313 10.8298C37.6865 10.9267 37.7155 11.0358 37.7155 11.1468V36.8524C37.7155 37.025 37.6454 37.1906 37.5206 37.3126C37.3957 37.4346 37.2264 37.5032 37.0499 37.5032ZM10.76 36.2017H36.3844V12.1997L30.764 14.9476L24.1695 20.4278C24.0851 20.4981 23.9841 20.5466 23.8757 20.569L17.7544 21.8293L10.76 28.979V36.2017Z" fill="white"/>
<path d="M37.0499 37.5036H10.0944C9.91788 37.5036 9.74859 37.4351 9.62377 37.313C9.49896 37.191 9.42883 37.0255 9.42883 36.8529V32.9482C9.42882 32.8627 9.44603 32.7781 9.47949 32.6992C9.51295 32.6202 9.56201 32.5485 9.62384 32.4881L16.9451 25.3296C17.0699 25.2075 17.2391 25.1389 17.4157 25.1389H23.5542L30.0518 21.327C30.0992 21.299 30.1499 21.2771 30.2029 21.2616L36.8586 19.3092C36.958 19.2801 37.0629 19.2741 37.1651 19.2917C37.2673 19.3093 37.3639 19.35 37.4471 19.4106C37.5303 19.4712 37.598 19.5499 37.6446 19.6405C37.6912 19.7312 37.7154 19.8312 37.7155 19.9327V36.8529C37.7155 37.0255 37.6454 37.191 37.5206 37.313C37.3957 37.4351 37.2264 37.5036 37.0499 37.5036ZM10.76 36.2021H36.3844V20.8073L30.6651 22.485L24.081 26.3477C23.9776 26.4084 23.8592 26.4405 23.7386 26.4404H17.6915L10.76 33.2176V36.2021Z" fill="white"/>
<path d="M37.0499 37.5036H10.0944C9.96151 37.5036 9.83166 37.4646 9.72159 37.3918C9.61153 37.3189 9.52628 37.2155 9.47684 37.0949C9.4274 36.9743 9.41603 36.842 9.44419 36.715C9.47235 36.588 9.53875 36.4721 9.63484 36.3823L16.9561 29.5492C17.0341 29.4759 17.1293 29.4225 17.2333 29.3935C17.3373 29.3645 17.447 29.3609 17.5528 29.3829L23.6634 30.6405L30.121 27.7992C30.1866 27.7705 30.2565 27.7523 30.328 27.7452L36.9837 27.0944C37.0762 27.0854 37.1696 27.0955 37.258 27.1239C37.3463 27.1524 37.4275 27.1986 37.4964 27.2596C37.5654 27.3206 37.6205 27.395 37.6582 27.4781C37.6959 27.5612 37.7155 27.6511 37.7155 27.742V36.8528C37.7155 37.0254 37.6454 37.191 37.5206 37.313C37.3958 37.435 37.2265 37.5036 37.0499 37.5036ZM11.7557 36.2021H36.3844V28.4611L30.5683 29.0299L24.0118 31.9147C23.883 31.9709 23.7395 31.9861 23.6015 31.958L17.6217 30.7271L11.7557 36.2021Z" fill="white"/>
</g>
</g>
</g>
<path d="M77.1715 23.5726V24.5382C77.1715 26.2471 76.8708 27.7453 76.2692 29.0327C75.6644 30.3202 74.8005 31.3102 73.6776 32.003C72.5581 32.6924 71.2682 33.0371 69.8078 33.0371C68.3607 33.0371 67.0725 32.6924 65.9429 32.003C64.8134 31.3102 63.9411 30.3267 63.3262 29.0523C62.708 27.7747 62.3955 26.3027 62.3889 24.6362V23.6559C62.3889 21.9568 62.6963 20.457 63.3112 19.1565C63.9294 17.856 64.7983 16.861 65.9179 16.1715C67.0407 15.4788 68.329 15.1324 69.7827 15.1324C71.2331 15.1324 72.5197 15.4739 73.6425 16.1568C74.7654 16.8398 75.6326 17.8217 76.2442 19.1025C76.8557 20.3834 77.1649 21.8735 77.1715 23.5726ZM74.0787 24.5382V23.6314C74.0787 21.7003 73.7044 20.2201 72.9558 19.1908C72.2106 18.1615 71.1529 17.6468 69.7827 17.6468C68.4426 17.6468 67.395 18.1599 66.6397 19.1859C65.8878 20.2119 65.5035 21.6611 65.4868 23.5334V24.5382C65.4868 26.453 65.8677 27.9332 66.6297 28.9788C67.3916 30.0244 68.451 30.5473 69.8078 30.5473C71.1779 30.5473 72.2323 30.0375 72.9708 29.018C73.7094 27.9953 74.0787 26.502 74.0787 24.5382ZM91.5632 26.2733V26.4546C91.5632 28.4576 91.0987 30.0555 90.1697 31.2481C89.2373 32.4408 87.9891 33.0371 86.4251 33.0371C84.9714 33.0371 83.8085 32.5699 82.9362 31.6354V37.7768H79.9637V19.8476H82.7056L82.826 21.166C83.6982 20.1302 84.8845 19.6123 86.385 19.6123C88.0025 19.6123 89.269 20.2005 90.1847 21.3768C91.1037 22.5531 91.5632 24.1853 91.5632 26.2733ZM88.6007 26.2046C88.6007 24.9107 88.3383 23.8847 87.8137 23.1266C87.2857 22.3685 86.5321 21.9895 85.5529 21.9895C84.3398 21.9895 83.4676 22.4812 82.9362 23.4648V29.2092C83.4743 30.2123 84.3549 30.7139 85.578 30.7139C86.5237 30.7139 87.2639 30.3414 87.7986 29.5964C88.3333 28.8514 88.6007 27.7208 88.6007 26.2046ZM94.8316 16.7009H97.8041V19.8476H100.14V22.0042H97.8041V29.2288C97.8041 29.7255 97.9044 30.0833 98.1049 30.3022C98.3054 30.5211 98.6613 30.6306 99.1726 30.6306C99.5168 30.6306 99.8644 30.5914 100.215 30.5129V32.7627C99.5369 32.9457 98.8836 33.0371 98.2553 33.0371C95.9728 33.0371 94.8316 31.8036 94.8316 29.3366V22.0042H92.651V19.8476H94.8316V16.7009ZM105.574 19.8476V32.797H102.601V19.8476H105.574ZM102.416 16.4852C102.416 16.0408 102.561 15.67 102.852 15.3726C103.139 15.0785 103.554 14.9315 104.095 14.9315C104.633 14.9315 105.049 15.0785 105.343 15.3726C105.637 15.67 105.784 16.0408 105.784 16.4852C105.784 16.9263 105.637 17.2923 105.343 17.5831C105.049 17.8739 104.633 18.0193 104.095 18.0193C103.554 18.0193 103.139 17.8739 102.852 17.5831C102.561 17.2923 102.416 16.9263 102.416 16.4852ZM112.832 32.797H109.855V22.0042H107.835V19.8476H109.855V18.6663C109.855 17.2286 110.263 16.1192 111.078 15.3383C111.897 14.5573 113.04 14.1669 114.507 14.1669C115.028 14.1669 115.583 14.2388 116.171 14.3825L116.096 16.6568C115.772 16.5914 115.392 16.5587 114.958 16.5587C113.541 16.5587 112.832 17.2727 112.832 18.7006V19.8476H115.524V22.0042H112.832V32.797ZM120.858 14.4168V32.797H117.885V14.4168H120.858ZM123.535 26.3468V26.2046C123.535 24.9368 123.792 23.7932 124.307 22.7737C124.821 21.7575 125.543 20.9765 126.472 20.4308C127.401 19.8851 128.471 19.6123 129.68 19.6123C131.465 19.6123 132.915 20.1743 134.031 21.2984C135.144 22.4224 135.746 23.9141 135.836 25.7733L135.846 26.4546C135.846 27.7322 135.595 28.8726 135.094 29.8758C134.593 30.8822 133.874 31.6599 132.939 32.2088C132.006 32.761 130.929 33.0371 129.705 33.0371C127.837 33.0371 126.342 32.4294 125.219 31.2138C124.096 29.995 123.535 28.3727 123.535 26.3468ZM126.507 26.4546C126.507 27.7878 126.79 28.8301 127.354 29.5817C127.916 30.3365 128.7 30.7139 129.705 30.7139C130.708 30.7139 131.488 30.3316 132.046 29.567C132.605 28.7991 132.884 27.6783 132.884 26.2046C132.884 24.8943 132.596 23.8569 132.021 23.0923C131.447 22.3277 130.666 21.9453 129.68 21.9453C128.708 21.9453 127.936 22.3211 127.364 23.0727C126.793 23.8275 126.507 24.9548 126.507 26.4546ZM147.24 19.8476L149.992 28.7877L152.098 19.8476H155L151.391 32.797H148.939L146.102 23.9059L143.31 32.797H140.864L137.24 19.8476H140.142L142.283 28.6945L144.999 19.8476H147.24Z" fill="#1E55B3"/>
<defs>
<clipPath id="clip0_98_179">
<rect width="47.1444" height="46.0967" fill="white" transform="translate(-6.10352e-05 0.95166)"/>
</clipPath>
<clipPath id="clip1_98_179">
<rect width="28.2867" height="27.0072" fill="white" transform="translate(9.42883 10.4964)"/>
</clipPath>
<clipPath id="clip2_98_179">
<rect width="28.2867" height="27.0072" fill="white" transform="translate(9.42883 10.4964)"/>
</clipPath>
</defs>
</svg>
