<svg width="142" height="40" viewBox="0 0 142 40" fill="none" xmlns="http://www.w3.org/2000/svg">
<g clip-path="url(#clip0_1158_167)">
<path d="M12.2727 40.0419C5.4945 40.0419 0 34.6695 0 28.0419V12.0419C0 5.41432 5.4945 0.0419312 12.2727 0.0419312H28.6364C35.4146 0.0419312 40.9091 5.41432 40.9091 12.0419V28.0419C40.9091 34.6695 35.4146 40.0419 28.6364 40.0419H12.2727Z" fill="#FF585F"/>
<g clip-path="url(#clip1_1158_167)">
<g clip-path="url(#clip2_1158_167)">
<path d="M32.1499 31.7172H8.75943C8.60625 31.7172 8.45935 31.6577 8.35104 31.5518C8.24273 31.4459 8.18188 31.3023 8.18188 31.1525V24.0937C8.18196 23.9482 8.23935 23.8083 8.34215 23.7032L14.6951 17.2091C14.7756 17.1269 14.8796 17.0704 14.9934 17.047L20.3365 15.947L26.0005 11.2401C26.0358 11.2107 26.0746 11.1855 26.116 11.165L31.8914 8.3415C31.9795 8.29841 32.0773 8.27806 32.1757 8.28237C32.2741 8.28668 32.3697 8.31551 32.4535 8.36612C32.5372 8.41674 32.6064 8.48745 32.6543 8.57155C32.7023 8.65565 32.7274 8.75034 32.7274 8.84663V31.1525C32.7274 31.3023 32.6665 31.4459 32.5582 31.5518C32.4499 31.6577 32.303 31.7172 32.1499 31.7172ZM9.33697 30.5878H31.5723V9.76032L26.6953 12.1448L20.973 16.9002C20.8998 16.9612 20.8121 17.0033 20.718 17.0227L15.4064 18.1163L9.33697 24.3204V30.5878Z" fill="white"/>
<path d="M32.1499 31.7176H8.75943C8.60625 31.7176 8.45935 31.6581 8.35104 31.5522C8.24273 31.4463 8.18188 31.3027 8.18188 31.1529V27.7647C8.18187 27.6905 8.19681 27.6171 8.22584 27.5486C8.25488 27.4801 8.29745 27.4178 8.3511 27.3654L14.7041 21.1537C14.8123 21.0477 14.9592 20.9882 15.1124 20.9882H20.439L26.0773 17.6804C26.1184 17.6562 26.1624 17.6371 26.2084 17.6237L31.9838 15.9296C32.0701 15.9043 32.1611 15.8991 32.2498 15.9144C32.3385 15.9297 32.4223 15.965 32.4945 16.0175C32.5667 16.0701 32.6254 16.1384 32.6658 16.2171C32.7063 16.2957 32.7274 16.3825 32.7274 16.4706V31.1529C32.7274 31.3027 32.6665 31.4463 32.5582 31.5522C32.4499 31.6581 32.303 31.7176 32.1499 31.7176ZM9.33697 30.5882H31.5723V17.2295L26.6095 18.6853L20.8962 22.0371C20.8064 22.0898 20.7037 22.1176 20.599 22.1176H15.3518L9.33697 27.9985V30.5882Z" fill="white"/>
<path d="M32.1499 31.7176H8.75947C8.64414 31.7176 8.53147 31.6838 8.43596 31.6206C8.34045 31.5574 8.26648 31.4676 8.22358 31.363C8.18067 31.2583 8.17081 31.1435 8.19524 31.0333C8.21968 30.9231 8.27729 30.8225 8.36068 30.7446L14.7136 24.8152C14.7813 24.7517 14.8639 24.7053 14.9542 24.6802C15.0444 24.655 15.1396 24.6518 15.2314 24.6709L20.5338 25.7622L26.1374 23.2967C26.1943 23.2718 26.255 23.256 26.317 23.2499L32.0924 22.6851C32.1727 22.6773 32.2538 22.6861 32.3304 22.7107C32.407 22.7354 32.4775 22.7755 32.5373 22.8284C32.5971 22.8814 32.645 22.946 32.6777 23.0181C32.7105 23.0901 32.7274 23.1681 32.7274 23.247V31.1529C32.7274 31.3027 32.6666 31.4463 32.5583 31.5522C32.45 31.6581 32.3031 31.7176 32.1499 31.7176ZM10.201 30.5882H31.5724V23.871L26.5255 24.3646L20.8361 26.8679C20.7244 26.9167 20.5999 26.9298 20.4801 26.9055L15.2912 25.8373L10.201 30.5882Z" fill="white"/>
</g>
</g>
</g>
<path d="M63.7827 19.4057V20.3713C63.7827 22.0802 63.4819 23.5784 62.8804 24.8659C62.2755 26.1533 61.4116 27.1434 60.2888 27.8361C59.1693 28.5255 57.8793 28.8703 56.4189 28.8703C54.9719 28.8703 53.6836 28.5255 52.5541 27.8361C51.4245 27.1434 50.5523 26.1598 49.9374 24.8855C49.3191 23.6078 49.0067 22.1358 49 20.4693V19.4891C49 17.7899 49.3075 16.2901 49.9224 14.9896C50.5406 13.6891 51.4095 12.6941 52.529 12.0047C53.6519 11.3119 54.9401 10.9656 56.3938 10.9656C57.8442 10.9656 59.1308 11.307 60.2537 11.99C61.3766 12.6729 62.2438 13.6548 62.8553 14.9357C63.4669 16.2166 63.776 17.7066 63.7827 19.4057ZM60.6898 20.3713V19.4645C60.6898 17.5334 60.3155 16.0532 59.5669 15.0239C58.8217 13.9946 57.764 13.48 56.3938 13.48C55.0538 13.48 54.0061 13.993 53.2508 15.019C52.4989 16.045 52.1146 17.4942 52.0979 19.3665V20.3713C52.0979 22.2861 52.4789 23.7663 53.2408 24.8119C54.0028 25.8576 55.0621 26.3804 56.4189 26.3804C57.7891 26.3804 58.8434 25.8706 59.582 24.8512C60.3205 23.8284 60.6898 22.3351 60.6898 20.3713ZM78.1744 22.1064V22.2877C78.1744 24.2908 77.7099 25.8886 76.7808 27.0813C75.8484 28.2739 74.6003 28.8703 73.0363 28.8703C71.5826 28.8703 70.4196 28.403 69.5474 27.4685V33.6099H66.5748V15.6807H69.3168L69.4371 16.9992C70.3093 15.9633 71.4957 15.4454 72.9962 15.4454C74.6136 15.4454 75.8802 16.0336 76.7959 17.2099C77.7149 18.3862 78.1744 20.0184 78.1744 22.1064ZM75.2118 22.0378C75.2118 20.7438 74.9495 19.7178 74.4248 18.9597C73.8968 18.2016 73.1432 17.8226 72.1641 17.8226C70.951 17.8226 70.0787 18.3144 69.5474 19.2979V25.0423C70.0854 26.0455 70.966 26.547 72.1891 26.547C73.1349 26.547 73.8751 26.1745 74.4098 25.4295C74.9445 24.6845 75.2118 23.5539 75.2118 22.0378ZM81.4427 12.534H84.4153V15.6807H86.7512V17.8373H84.4153V25.0619C84.4153 25.5586 84.5155 25.9164 84.7161 26.1353C84.9166 26.3542 85.2725 26.4637 85.7838 26.4637C86.128 26.4637 86.4755 26.4245 86.8264 26.3461V28.5958C86.148 28.7788 85.4947 28.8703 84.8664 28.8703C82.5839 28.8703 81.4427 27.6368 81.4427 25.1697V17.8373H79.2621V15.6807H81.4427V12.534ZM92.1851 15.6807V28.6301H89.2125V15.6807H92.1851ZM89.027 12.3183C89.027 11.874 89.1724 11.5031 89.4632 11.2057C89.7506 10.9117 90.1649 10.7646 90.7063 10.7646C91.2444 10.7646 91.6604 10.9117 91.9545 11.2057C92.2486 11.5031 92.3956 11.874 92.3956 12.3183C92.3956 12.7595 92.2486 13.1254 91.9545 13.4163C91.6604 13.7071 91.2444 13.8525 90.7063 13.8525C90.1649 13.8525 89.7506 13.7071 89.4632 13.4163C89.1724 13.1254 89.027 12.7595 89.027 12.3183ZM99.4436 28.6301H96.466V17.8373H94.4459V15.6807H96.466V14.4995C96.466 13.0617 96.8737 11.9524 97.6891 11.1714C98.5079 10.3905 99.6508 10 101.118 10C101.639 10 102.194 10.0719 102.782 10.2157L102.707 12.4899C102.383 12.4245 102.003 12.3919 101.569 12.3919C100.152 12.3919 99.4436 13.1058 99.4436 14.5338V15.6807H102.135V17.8373H99.4436V28.6301ZM107.469 10.25V28.6301H104.496V10.25H107.469ZM110.146 22.1799V22.0378C110.146 20.7699 110.403 19.6263 110.918 18.6068C111.432 17.5906 112.154 16.8096 113.083 16.264C114.012 15.7183 115.082 15.4454 116.292 15.4454C118.076 15.4454 119.526 16.0074 120.643 17.1315C121.755 18.2555 122.357 19.7472 122.447 21.6064L122.457 22.2877C122.457 23.5654 122.207 24.7057 121.705 25.7089C121.204 26.7153 120.486 27.493 119.55 28.0419C118.617 28.5942 117.54 28.8703 116.317 28.8703C114.449 28.8703 112.953 28.2625 111.83 27.047C110.707 25.8282 110.146 24.2058 110.146 22.1799ZM113.118 22.2877C113.118 23.6209 113.401 24.6633 113.966 25.4148C114.527 26.1696 115.311 26.547 116.317 26.547C117.319 26.547 118.099 26.1647 118.658 25.4001C119.216 24.6322 119.495 23.5114 119.495 22.0378C119.495 20.7275 119.207 19.69 118.633 18.9254C118.058 18.1608 117.277 17.7785 116.292 17.7785C115.319 17.7785 114.547 18.1542 113.976 18.9058C113.404 19.6606 113.118 20.7879 113.118 22.2877ZM133.851 15.6807L136.603 24.6208L138.709 15.6807H141.611L138.002 28.6301H135.551L132.713 19.739L129.921 28.6301H127.475L123.851 15.6807H126.753L128.894 24.5277L131.611 15.6807H133.851Z" fill="#1E55B3"/>
<defs>
<clipPath id="clip0_1158_167">
<rect width="40.9092" height="40" fill="white"/>
</clipPath>
<clipPath id="clip1_1158_167">
<rect width="24.5455" height="23.4353" fill="white" transform="translate(8.18188 8.28235)"/>
</clipPath>
<clipPath id="clip2_1158_167">
<rect width="24.5455" height="23.4353" fill="white" transform="translate(8.18188 8.28235)"/>
</clipPath>
</defs>
</svg>
