<svg width="178" height="55" viewBox="0 0 178 55" fill="none" xmlns="http://www.w3.org/2000/svg">
<g clip-path="url(#clip0_104_356)">
<path d="M16.242 54.1678C7.27154 54.1678 0 46.8925 0 37.9175V16.2503C0 7.27528 7.27154 0 16.242 0H37.898C46.8684 0 54.14 7.27528 54.14 16.2503V37.9175C54.14 46.8925 46.8684 54.1678 37.898 54.1678H16.242Z" fill="#FF585F"/>
<g clip-path="url(#clip1_104_356)">
<g clip-path="url(#clip2_104_356)">
<path d="M42.5477 42.9513H11.5923C11.3896 42.9513 11.1952 42.8707 11.0519 42.7273C10.9085 42.5839 10.828 42.3894 10.828 42.1866V32.6276C10.8281 32.4305 10.9041 32.2412 11.0401 32.0987L19.4477 23.3044C19.5542 23.1932 19.6918 23.1167 19.8425 23.085L26.9137 21.5953L34.4095 15.2213C34.4562 15.1814 34.5075 15.1473 34.5624 15.1196L42.2057 11.296C42.3222 11.2376 42.4517 11.2101 42.5819 11.2159C42.7121 11.2218 42.8386 11.2608 42.9495 11.3293C43.0604 11.3979 43.1519 11.4936 43.2153 11.6075C43.2788 11.7214 43.3121 11.8497 43.312 11.98V42.1866C43.312 42.3894 43.2315 42.5839 43.0882 42.7273C42.9448 42.8707 42.7504 42.9513 42.5477 42.9513ZM12.3567 41.4219H41.7834V13.2174L35.329 16.4464L27.756 22.8861C27.6591 22.9687 27.5431 23.0258 27.4185 23.0521L20.389 24.533L12.3567 32.9346V41.4219Z" fill="white"/>
<path d="M42.5477 42.952H11.5923C11.3896 42.952 11.1952 42.8714 11.0519 42.728C10.9085 42.5846 10.828 42.39 10.828 42.1872V37.5989C10.828 37.4985 10.8478 37.399 10.8862 37.3063C10.9246 37.2135 10.9809 37.1292 11.052 37.0582L19.4596 28.6463C19.6029 28.5029 19.7973 28.4223 20 28.4222H27.0494L34.5111 23.9429C34.5655 23.91 34.6238 23.8842 34.6847 23.866L42.328 21.5718C42.4421 21.5376 42.5626 21.5306 42.68 21.5513C42.7973 21.572 42.9082 21.6198 43.0038 21.691C43.0994 21.7621 43.1771 21.8546 43.2306 21.9612C43.2841 22.0677 43.312 22.1852 43.312 22.3044V42.1872C43.312 42.39 43.2315 42.5846 43.0882 42.728C42.9448 42.8714 42.7504 42.952 42.5477 42.952ZM12.3567 41.4225H41.7834V23.3322L35.2155 25.3037L27.6543 29.8427C27.5356 29.914 27.3996 29.9517 27.2611 29.9517H20.3168L12.3567 37.9155V41.4225Z" fill="white"/>
<path d="M42.5477 42.9519H11.5923C11.4397 42.9519 11.2906 42.9061 11.1642 42.8205C11.0378 42.7349 10.9399 42.6134 10.8831 42.4717C10.8263 42.3299 10.8133 42.1744 10.8456 42.0252C10.8779 41.8759 10.9542 41.7398 11.0645 41.6343L19.4722 33.6047C19.5618 33.5187 19.6711 33.4559 19.7905 33.4218C19.91 33.3878 20.0359 33.3835 20.1574 33.4093L27.1747 34.8872L34.5906 31.5484C34.6659 31.5146 34.7462 31.4932 34.8283 31.4849L42.4716 30.7202C42.5779 30.7096 42.6851 30.7214 42.7865 30.7548C42.888 30.7883 42.9812 30.8426 43.0604 30.9142C43.1396 30.9859 43.2029 31.0734 43.2462 31.171C43.2895 31.2686 43.3119 31.3743 43.312 31.4811V42.1872C43.312 42.39 43.2315 42.5845 43.0881 42.7279C42.9448 42.8714 42.7504 42.9519 42.5477 42.9519ZM13.5001 41.4225H41.7833V32.3261L35.1042 32.9945L27.5748 36.3845C27.427 36.4505 27.2621 36.4683 27.1036 36.4353L20.2365 34.9889L13.5001 41.4225Z" fill="white"/>
</g>
</g>
</g>
<path d="M88.6229 26.5817V27.7163C88.6229 29.7245 88.2775 31.485 87.5867 32.9978C86.8921 34.5107 85.9 35.6741 84.6105 36.4881C83.3249 37.2983 81.8435 37.7034 80.1664 37.7034C78.5047 37.7034 77.0253 37.2983 75.7281 36.4881C74.4309 35.6741 73.4293 34.5184 72.7232 33.0209C72.0132 31.5195 71.6543 29.7897 71.6467 27.8315V26.6796C71.6467 24.6829 71.9997 22.9205 72.7059 21.3923C73.4159 19.8641 74.4137 18.6949 75.6993 17.8847C76.9888 17.0707 78.4682 16.6637 80.1377 16.6637C81.8032 16.6637 83.2808 17.0649 84.5703 17.8674C85.8597 18.6699 86.8556 19.8238 87.5579 21.3289C88.2602 22.8341 88.6152 24.585 88.6229 26.5817ZM85.0711 27.7163V26.6508C85.0711 24.3815 84.6413 22.6421 83.7816 21.4326C82.9258 20.2231 81.7111 19.6183 80.1377 19.6183C78.5987 19.6183 77.3956 20.2212 76.5283 21.4268C75.6648 22.6325 75.2234 24.3354 75.2043 26.5356V27.7163C75.2043 29.9664 75.6418 31.7058 76.5168 32.9345C77.3918 34.1632 78.6083 34.7775 80.1664 34.7775C81.7399 34.7775 82.9507 34.1785 83.7989 32.9805C84.647 31.7787 85.0711 30.024 85.0711 27.7163ZM105.15 29.7552V29.9683C105.15 32.322 104.617 34.1997 103.55 35.6011C102.479 37.0026 101.046 37.7034 99.2496 37.7034C97.5802 37.7034 96.2447 37.1543 95.243 36.0562V43.2729H91.8293V22.2044H94.9782L95.1164 23.7537C96.118 22.5365 97.4804 21.9279 99.2036 21.9279C101.061 21.9279 102.516 22.6191 103.567 24.0014C104.622 25.3837 105.15 27.3016 105.15 29.7552ZM101.748 29.6746C101.748 28.154 101.447 26.9484 100.844 26.0575C100.238 25.1667 99.3724 24.7213 98.248 24.7213C96.8549 24.7213 95.8532 25.2992 95.243 26.455V33.2052C95.8609 34.384 96.8721 34.9734 98.2767 34.9734C99.3628 34.9734 100.213 34.5356 100.827 33.6602C101.441 32.7847 101.748 31.4562 101.748 29.6746ZM108.903 18.5067H112.317V22.2044H115V24.7386H112.317V33.2282C112.317 33.8118 112.432 34.2323 112.663 34.4896C112.893 34.7468 113.301 34.8754 113.889 34.8754C114.284 34.8754 114.683 34.8294 115.086 34.7372V37.3809C114.307 37.5959 113.557 37.7034 112.835 37.7034C110.214 37.7034 108.903 36.2539 108.903 33.3549V24.7386H106.399V22.2044H108.903V18.5067ZM121.24 22.2044V37.4212H117.826V22.2044H121.24ZM117.613 18.2533C117.613 17.7311 117.78 17.2953 118.114 16.9459C118.444 16.6003 118.92 16.4275 119.542 16.4275C120.16 16.4275 120.637 16.6003 120.975 16.9459C121.313 17.2953 121.482 17.7311 121.482 18.2533C121.482 18.7717 121.313 19.2017 120.975 19.5435C120.637 19.8852 120.16 20.0561 119.542 20.0561C118.92 20.0561 118.444 19.8852 118.114 19.5435C117.78 19.2017 117.613 18.7717 117.613 18.2533ZM129.575 37.4212H126.156V24.7386H123.836V22.2044H126.156V20.8163C126.156 19.1269 126.624 17.8233 127.561 16.9056C128.501 15.9879 129.813 15.5291 131.498 15.5291C132.097 15.5291 132.734 15.6135 133.409 15.7825L133.323 18.4549C132.951 18.3781 132.515 18.3397 132.016 18.3397C130.389 18.3397 129.575 19.1787 129.575 20.8567V22.2044H132.667V24.7386H129.575V37.4212ZM138.792 15.8228V37.4212H135.378V15.8228H138.792ZM141.866 29.8416V29.6746C141.866 28.1847 142.161 26.8408 142.752 25.6429C143.343 24.4487 144.172 23.531 145.239 22.8898C146.306 22.2485 147.534 21.9279 148.923 21.9279C150.973 21.9279 152.638 22.5884 153.92 23.9092C155.198 25.2301 155.889 26.9829 155.992 29.1677L156.004 29.9683C156.004 31.4696 155.716 32.8097 155.141 33.9885C154.565 35.1711 153.74 36.085 152.665 36.73C151.594 37.3789 150.357 37.7034 148.952 37.7034C146.807 37.7034 145.089 36.9892 143.8 35.5608C142.511 34.1286 141.866 32.2222 141.866 29.8416ZM145.279 29.9683C145.279 31.5349 145.604 32.7598 146.252 33.6429C146.897 34.5299 147.797 34.9734 148.952 34.9734C150.103 34.9734 151 34.5241 151.64 33.6256C152.281 32.7233 152.602 31.4063 152.602 29.6746C152.602 28.1348 152.272 26.9157 151.612 26.0172C150.952 25.1187 150.056 24.6695 148.923 24.6695C147.807 24.6695 146.92 25.1111 146.264 25.9942C145.608 26.8812 145.279 28.2059 145.279 29.9683ZM169.089 22.2044L172.249 32.7098L174.667 22.2044H178L173.855 37.4212H171.04L167.782 26.9733L164.576 37.4212H161.766L157.604 22.2044H160.937L163.395 32.6004L166.516 22.2044H169.089Z" fill="#1E55B3"/>
<defs>
<clipPath id="clip0_104_356">
<rect width="54.14" height="54.1679" fill="white"/>
</clipPath>
<clipPath id="clip1_104_356">
<rect width="32.484" height="31.736" fill="white" transform="translate(10.828 11.2159)"/>
</clipPath>
<clipPath id="clip2_104_356">
<rect width="32.484" height="31.736" fill="white" transform="translate(10.828 11.2159)"/>
</clipPath>
</defs>
</svg>
